0.16m3min_grf.mot
version=1
nRows=10
nColumns 19
inDegrees=yes
endheader
time	1_ground_force_vx	1_ground_force_vy	1_ground_force_vz	1_ground_force_px	1_ground_force_py	1_ground_force_pz	1_ground_torque_x	1_ground_torque_y	1_ground_torque_z	2_ground_force_vx	2_ground_force_vy	2_ground_force_vz	2_ground_force_px	2_ground_force_py	2_ground_force_pz	2_ground_torque_x	2_ground_torque_y	2_ground_torque_z
            2.500000	            0.000346	            5.585877	            0.574233	           -0.233013	            0.005581	           -0.255695	            0.630487	           -0.287209	            0.184986	           -0.407537	            9.202046	            1.159287	           -0.232311	            0.006130	           -0.833667	           -2.194674	           -0.731383	            1.412137
            2.500500	            0.551112	            5.765069	            0.848776	           -0.233013	            0.005581	           -0.255695	            0.581413	           -0.176519	            0.321821	           -0.643677	            9.752808	            1.395998	           -0.232311	            0.006130	           -0.833667	           -2.175880	           -0.731383	            1.430979
            2.501000	            0.229495	            5.946452	            0.575210	           -0.233013	            0.005581	           -0.255695	            0.592711	           -0.157704	            0.195395	           -1.068170	           10.489386	            0.976453	           -0.093718	            0.005881	           -0.623727	            0.045549	           -0.447289	           -0.041638
            2.501500	            0.320660	            6.307788	            0.393105	           -0.233013	            0.005581	           -0.255695	            0.600319	           -0.203883	            0.199075	           -0.878817	            9.937952	            0.880546	           -0.232311	            0.006130	           -0.833667	           -2.250715	           -0.816728	            1.430707
            2.502000	            0.367821	            5.945103	            0.895860	           -0.233013	            0.005581	           -0.255695	            0.653777	           -0.286380	            0.050172	           -0.738953	           10.122775	            0.834215	           -0.085033	            0.005849	           -0.605897	            0.036305	           -0.497332	           -0.040985
            2.502500	            0.367383	            5.225023	            0.663488	           -0.233013	            0.005581	           -0.255695	            0.664349	           -0.314681	            0.181636	           -0.412874	           10.675400	            1.117615	           -0.093782	            0.005910	           -0.631725	            0.017606	           -0.455238	           -0.047659
            2.503000	            0.412541	            6.487678	            0.485362	           -0.233013	            0.005581	           -0.255695	            0.671175	           -0.305099	            0.108378	           -0.738932	           10.122608	            0.881143	           -0.091667	            0.005862	           -0.616228	            0.025014	           -0.342669	           -0.029828
            2.503500	            0.275826	            5.765409	            0.757747	           -0.233013	            0.005581	           -0.255695	            0.641341	           -0.231614	            0.196919	           -0.596848	            9.753145	            1.349050	           -0.232311	            0.006130	           -0.833667	           -2.213596	           -0.693640	            1.412280
            2.504000	            0.321768	            5.224621	            0.755314	           -0.233013	            0.005581	           -0.255695	            0.622819	           -0.185218	            0.161542	           -0.738083	            9.936953	            1.302839	           -0.232311	            0.006130	           -0.833667	           -2.175862	           -0.749885	            1.317810
            2.504500	            0.367141	            4.684816	            0.523602	           -0.233013	            0.005581	           -0.255695	            0.651857	           -0.166955	            0.219916	           -0.973661	           10.304404	            1.304253	           -0.097721	            0.005856	           -0.620751	            0.037361	           -0.395396	           -0.050046
